<?xml version="1.0" standalone="no"?>
<!DOCTYPE svg PUBLIC "-//W3C//DTD SVG 1.0//EN" "http://www.w3.org/TR/2001/REC-SVG-20010904/DTD/svg10.dtd">
<svg xmlns="http://www.w3.org/2000/svg" xmlns:xlink="http://www.w3.org/1999/xlink" id="body_1" width="683" height="683">

<g transform="matrix(1.3339844 0 0 1.3339844 0 0)">
	<g transform="matrix(0.1 0 -0 -0.1 0 512)">
        <path d="M2466 5105C 2418 5088 2383 5063 2356 5027C 2338 5002 2336 4987 2339 4855L2339 4855L2341 4711L2313 4704C 2163 4670 2045 4627 1935 4566C 1704 4436 1497 4208 1390 3965C 1352 3877 1300 3701 1300 3659C 1300 3644 1292 3640 1262 3640C 1241 3640 1214 3633 1202 3624C 1180 3609 1180 3605 1180 3396C 1180 3156 1178 3161 1255 3152C 1280 3150 1300 3145 1300 3141C 1300 3138 1311 2964 1325 2755C 1339 2546 1375 1988 1405 1515C 1435 1042 1462 630 1466 600C 1499 311 1739 61 2030 10C 2074 2 2255 0 2595 2C 3086 5 3096 6 3165 29C 3360 93 3534 253 3600 428C 3639 531 3649 618 3685 1185C 3704 1493 3738 2029 3760 2375C 3781 2722 3802 3037 3805 3076L3805 3076L3811 3148L3860 3152C 3942 3160 3940 3154 3940 3396C 3940 3605 3940 3609 3918 3624C 3906 3633 3877 3640 3854 3640C 3813 3640 3813 3640 3807 3683C 3796 3759 3750 3903 3706 3996C 3642 4132 3569 4233 3451 4351C 3275 4527 3103 4627 2875 4685L2875 4685L2785 4708L2780 4852C 2775 5010 2769 5027 2708 5073C 2647 5119 2543 5133 2466 5105zM2620 4987C 2655 4969 2657 4942 2625 4930C 2589 4916 2517 4917 2485 4932C 2433 4955 2479 5000 2555 5000C 2577 5000 2606 4994 2620 4987zM2555 4795C 2583 4795 2617 4798 2633 4803L2633 4803L2660 4810L2660 4225L2660 3640L2555 3640L2450 3640L2450 4225L2450 4810L2478 4803C 2493 4798 2528 4795 2555 4795zM2330 4115L2330 3640L1875 3640C 1436 3640 1420 3641 1420 3659C 1420 3689 1469 3849 1498 3915C 1584 4109 1703 4257 1884 4393C 1976 4463 2203 4563 2328 4589C 2329 4590 2330 4376 2330 4115zM3008 4516C 3333 4377 3573 4102 3670 3757C 3681 3716 3690 3674 3690 3662L3690 3662L3690 3640L3235 3640L2780 3640L2780 4114L2780 4588L2854 4569C 2895 4559 2964 4535 3008 4516zM3820 3395L3820 3270L2560 3270L1300 3270L1300 3395L1300 3520L2560 3520L3820 3520L3820 3395zM2180 2818C 2198 2805 2223 2782 2234 2767C 2254 2740 2255 2725 2260 2332L2260 2332L2265 1925L2293 1868C 2345 1762 2439 1707 2567 1708C 2649 1709 2723 1743 2779 1806C 2845 1882 2850 1908 2850 2209C 2850 2507 2856 2534 2921 2580C 2969 2615 3056 2619 3107 2590C 3181 2548 3184 2537 3191 2332L3191 2332L3197 2149L3231 2082C 3300 1946 3456 1888 3594 1945C 3616 1954 3617 2000 3584 1472L3584 1472L3566 1200L3536 1229C 3451 1309 3335 1326 3233 1274C 3167 1241 3116 1181 3099 1117C 3088 1075 3091 980 3104 948C 3110 935 3103 927 3073 915C 3052 906 3019 886 2999 870L2999 870L2962 841L2940 865C 2901 907 2837 931 2768 932C 2697 932 2647 915 2592 872L2592 872L2555 843L2530 868C 2465 932 2332 952 2245 910C 2134 856 2068 721 2099 612C 2107 584 2106 578 2092 574C 1960 532 1883 428 1892 302C 1894 270 1905 225 1917 202C 1928 179 1935 160 1933 160C 1908 160 1794 237 1744 287C 1682 349 1611 472 1595 543L1595 543L1589 570L1630 541C 1802 417 2044 542 2044 755C 2044 903 1934 1013 1785 1014C 1725 1015 1707 1011 1662 985C 1632 969 1597 943 1584 927L1584 927L1560 898L1560 937C 1560 958 1542 1245 1521 1575C 1500 1905 1483 2176 1484 2177C 1485 2178 1512 2169 1545 2158C 1684 2111 1831 2173 1897 2308C 1924 2363 1925 2373 1930 2552C 1935 2721 1937 2741 1956 2767C 1993 2816 2038 2840 2095 2840C 2133 2840 2156 2834 2180 2818zM3536 733C 3532 668 3522 586 3514 551C 3481 408 3369 260 3243 192L3243 192L3183 160L3204 203C 3220 236 3225 264 3225 329L3225 329L3225 413L3256 424C 3338 454 3412 533 3426 607C 3433 644 3427 746 3416 771C 3411 783 3416 789 3436 794C 3450 798 3479 812 3499 826C 3518 839 3537 850 3539 850C 3541 850 3540 797 3536 733zM2370 135C 2381 122 2378 120 2355 120C 2332 120 2329 122 2340 135C 2347 143 2354 150 2355 150C 2356 150 2363 143 2370 135zM2780 135C 2791 122 2788 120 2765 120C 2742 120 2739 122 2750 135C 2757 143 2764 150 2765 150C 2766 150 2773 143 2780 135z" stroke="none" fill="#ceb195" fill-rule="nonzero" />
        <path d="M2128 4405C 2050 4366 1982 4321 1927 4271L1927 4271L1889 4237L1927 4198C 1970 4154 1980 4152 2006 4182C 2032 4211 2163 4296 2206 4312C 2246 4326 2246 4330 2217 4392L2217 4392L2195 4439L2128 4405z" stroke="#ceb195" fill="#000000" fill-rule="nonzero" />
        <path d="M1796 4123C 1776 4097 1760 4072 1760 4068C 1760 4061 1844 4010 1857 4010C 1868 4010 1920 4092 1914 4101C 1912 4105 1892 4123 1870 4140L1870 4140L1831 4171L1796 4123z" stroke="#ceb195" fill="#000000" fill-rule="nonzero" />
	</g>
</g>
</svg>