<?xml version="1.0" encoding="UTF-8"?>
<svg xmlns="http://www.w3.org/2000/svg" xmlns:xlink="http://www.w3.org/1999/xlink" width="64px" height="64px" viewBox="0 0 64 64" version="1.1">
<g id="surface1">
<path style=" stroke:none;fill-rule:nonzero;fill:rgb(80.784314%,69.411765%,58.431373%);fill-opacity:1;" d="M 30.824219 0.1875 C 30.226562 0.398438 29.789062 0.710938 29.449219 1.164062 C 29.226562 1.476562 29.199219 1.664062 29.238281 3.3125 L 29.261719 5.113281 L 28.914062 5.199219 C 27.039062 5.625 25.5625 6.164062 24.1875 6.925781 C 21.300781 8.550781 18.710938 11.398438 17.375 14.4375 C 16.898438 15.539062 16.25 17.738281 16.25 18.261719 C 16.25 18.449219 16.148438 18.5 15.773438 18.5 C 15.511719 18.5 15.175781 18.585938 15.023438 18.699219 C 14.75 18.886719 14.75 18.9375 14.75 21.550781 C 14.75 24.550781 14.726562 24.488281 15.6875 24.601562 C 16 24.625 16.25 24.6875 16.25 24.738281 C 16.25 24.773438 16.386719 26.949219 16.5625 29.5625 C 16.738281 32.175781 17.1875 39.148438 17.5625 45.0625 C 17.9375 50.976562 18.273438 56.125 18.324219 56.5 C 18.738281 60.113281 21.738281 63.238281 25.375 63.875 C 25.925781 63.976562 28.1875 64 32.4375 63.976562 C 38.574219 63.9375 38.699219 63.925781 39.5625 63.636719 C 42 62.835938 44.175781 60.835938 45 58.648438 C 45.488281 57.363281 45.613281 56.273438 46.0625 49.1875 C 46.300781 45.335938 46.726562 38.636719 47 34.3125 C 47.261719 29.976562 47.523438 26.039062 47.5625 25.550781 L 47.636719 24.648438 L 48.25 24.601562 C 49.273438 24.5 49.25 24.574219 49.25 21.550781 C 49.25 18.9375 49.25 18.886719 48.976562 18.699219 C 48.824219 18.585938 48.460938 18.5 48.175781 18.5 C 47.664062 18.5 47.664062 18.5 47.585938 17.960938 C 47.449219 17.011719 46.875 15.210938 46.324219 14.050781 C 45.523438 12.351562 44.613281 11.085938 43.136719 9.613281 C 40.9375 7.414062 38.789062 6.164062 35.9375 5.4375 L 34.8125 5.148438 L 34.75 3.351562 C 34.6875 1.375 34.613281 1.164062 33.851562 0.585938 C 33.085938 0.0117188 31.789062 -0.164062 30.824219 0.1875 Z M 32.75 1.664062 C 33.1875 1.886719 33.210938 2.226562 32.8125 2.375 C 32.363281 2.550781 31.460938 2.539062 31.0625 2.351562 C 30.414062 2.0625 30.988281 1.5 31.9375 1.5 C 32.210938 1.5 32.574219 1.574219 32.75 1.664062 Z M 31.9375 4.0625 C 32.289062 4.0625 32.710938 4.023438 32.914062 3.960938 L 33.25 3.875 L 33.25 18.5 L 30.625 18.5 L 30.625 3.875 L 30.976562 3.960938 C 31.164062 4.023438 31.601562 4.0625 31.9375 4.0625 Z M 29.125 12.5625 L 29.125 18.5 L 23.4375 18.5 C 17.949219 18.5 17.75 18.488281 17.75 18.261719 C 17.75 17.886719 18.363281 15.886719 18.726562 15.0625 C 19.800781 12.636719 21.289062 10.789062 23.550781 9.085938 C 24.699219 8.210938 27.539062 6.960938 29.101562 6.636719 C 29.113281 6.625 29.125 9.300781 29.125 12.5625 Z M 37.601562 7.550781 C 41.664062 9.289062 44.664062 12.726562 45.875 17.039062 C 46.011719 17.550781 46.125 18.074219 46.125 18.226562 L 46.125 18.5 L 34.75 18.5 L 34.75 6.648438 L 35.675781 6.886719 C 36.1875 7.011719 37.050781 7.3125 37.601562 7.550781 Z M 47.75 21.5625 L 47.75 23.125 L 16.25 23.125 L 16.25 20 L 47.75 20 Z M 27.25 28.773438 C 27.476562 28.9375 27.789062 29.226562 27.925781 29.414062 C 28.175781 29.75 28.1875 29.9375 28.25 34.851562 L 28.3125 39.9375 L 28.664062 40.648438 C 29.3125 41.976562 30.488281 42.664062 32.085938 42.648438 C 33.113281 42.636719 34.039062 42.210938 34.738281 41.425781 C 35.5625 40.476562 35.625 40.148438 35.625 36.386719 C 35.625 32.664062 35.699219 32.324219 36.511719 31.75 C 37.113281 31.3125 38.199219 31.261719 38.835938 31.625 C 39.761719 32.148438 39.800781 32.289062 39.886719 34.851562 L 39.960938 37.136719 L 40.386719 37.976562 C 41.25 39.675781 43.199219 40.398438 44.925781 39.6875 C 45.199219 39.574219 45.210938 39 44.800781 45.601562 L 44.574219 49 L 44.199219 48.636719 C 43.136719 47.636719 41.6875 47.425781 40.414062 48.074219 C 39.585938 48.488281 38.949219 49.238281 38.738281 50.039062 C 38.601562 50.5625 38.636719 51.75 38.800781 52.148438 C 38.875 52.3125 38.789062 52.414062 38.414062 52.5625 C 38.148438 52.675781 37.738281 52.925781 37.488281 53.125 L 37.023438 53.488281 L 36.75 53.1875 C 36.261719 52.664062 35.460938 52.363281 34.601562 52.351562 C 33.710938 52.351562 33.085938 52.5625 32.398438 53.101562 L 31.9375 53.460938 L 31.625 53.148438 C 30.8125 52.351562 29.148438 52.101562 28.0625 52.625 C 26.675781 53.300781 25.851562 54.988281 26.238281 56.351562 C 26.335938 56.699219 26.324219 56.773438 26.148438 56.824219 C 24.5 57.351562 23.539062 58.648438 23.648438 60.226562 C 23.675781 60.625 23.8125 61.1875 23.960938 61.476562 C 24.101562 61.761719 24.1875 62 24.164062 62 C 23.851562 62 22.425781 61.039062 21.800781 60.414062 C 21.023438 59.636719 20.136719 58.101562 19.9375 57.210938 L 19.863281 56.875 L 20.375 57.238281 C 22.523438 58.789062 25.550781 57.226562 25.550781 54.5625 C 25.550781 52.710938 24.175781 51.335938 22.3125 51.324219 C 21.5625 51.3125 21.335938 51.363281 20.773438 51.6875 C 20.398438 51.886719 19.960938 52.210938 19.800781 52.414062 L 19.5 52.773438 L 19.5 52.289062 C 19.5 52.023438 19.273438 48.4375 19.011719 44.3125 C 18.75 40.1875 18.539062 36.800781 18.550781 36.789062 C 18.5625 36.773438 18.898438 36.886719 19.3125 37.023438 C 21.050781 37.613281 22.886719 36.835938 23.710938 35.148438 C 24.050781 34.460938 24.0625 34.335938 24.125 32.101562 C 24.1875 29.988281 24.210938 29.738281 24.449219 29.414062 C 24.914062 28.800781 25.476562 28.5 26.1875 28.5 C 26.664062 28.5 26.949219 28.574219 27.25 28.773438 Z M 44.199219 54.835938 C 44.148438 55.648438 44.023438 56.675781 43.925781 57.113281 C 43.511719 58.898438 42.113281 60.75 40.539062 61.601562 L 39.789062 62 L 40.050781 61.460938 C 40.25 61.050781 40.3125 60.699219 40.3125 59.886719 L 40.3125 58.835938 L 40.699219 58.699219 C 41.726562 58.324219 42.648438 57.335938 42.824219 56.414062 C 42.914062 55.949219 42.835938 54.675781 42.699219 54.363281 C 42.636719 54.210938 42.699219 54.136719 42.949219 54.074219 C 43.125 54.023438 43.488281 53.851562 43.738281 53.675781 C 43.976562 53.511719 44.210938 53.375 44.238281 53.375 C 44.261719 53.375 44.25 54.039062 44.199219 54.835938 Z M 29.625 62.3125 C 29.761719 62.476562 29.726562 62.5 29.4375 62.5 C 29.148438 62.5 29.113281 62.476562 29.25 62.3125 C 29.335938 62.210938 29.425781 62.125 29.4375 62.125 C 29.449219 62.125 29.539062 62.210938 29.625 62.3125 Z M 34.75 62.3125 C 34.886719 62.476562 34.851562 62.5 34.5625 62.5 C 34.273438 62.5 34.238281 62.476562 34.375 62.3125 C 34.460938 62.210938 34.550781 62.125 34.5625 62.125 C 34.574219 62.125 34.664062 62.210938 34.75 62.3125 Z M 34.75 62.3125 "/>
<path style="fill-rule:nonzero;fill:rgb(0%,0%,0%);fill-opacity:1;stroke-width:1;stroke-linecap:butt;stroke-linejoin:miter;stroke:rgb(80.784314%,69.411765%,58.431373%);stroke-opacity:1;stroke-miterlimit:4;" d="M 2128.12496 4405.000013 C 2049.999962 4365.937514 1981.874963 4320.937515 1926.874964 4270.937516 L 1889.062465 4236.875017 L 1926.874964 4198.125017 C 1969.999963 4154.062518 1979.999963 4151.875018 2005.937462 4181.875018 C 2031.874962 4210.937517 2163.124959 4295.937515 2205.937459 4311.875015 C 2245.937458 4325.937515 2245.937458 4330.000015 2216.874958 4391.875014 L 2194.999959 4439.062513 Z M 2128.12496 4405.000013 " transform="matrix(0.0125,0,0,-0.0125,0,64.000001)"/>
<path style="fill-rule:nonzero;fill:rgb(0%,0%,0%);fill-opacity:1;stroke-width:1;stroke-linecap:butt;stroke-linejoin:miter;stroke:rgb(80.784314%,69.411765%,58.431373%);stroke-opacity:1;stroke-miterlimit:4;" d="M 1795.937466 4123.125019 C 1775.937467 4096.875019 1759.999967 4071.87502 1759.999967 4068.12502 C 1759.999967 4060.93752 1844.062465 4010.000021 1856.874965 4010.000021 C 1868.124965 4010.000021 1919.999964 4091.875019 1914.062464 4100.937519 C 1911.874964 4105.000019 1891.874965 4123.125019 1869.999965 4140.000018 L 1830.937466 4170.937518 Z M 1795.937466 4123.125019 " transform="matrix(0.0125,0,0,-0.0125,0,64.000001)"/>
</g>
</svg>
