<?xml version="1.0" standalone="no"?>
<!DOCTYPE svg PUBLIC "-//W3C//DTD SVG 20010904//EN"
 "http://www.w3.org/TR/2001/REC-SVG-20010904/DTD/svg10.dtd">
<svg version="1.0" xmlns="http://www.w3.org/2000/svg"
 width="48.000000pt" height="48.000000pt" viewBox="0 0 48.000000 48.000000"
 preserveAspectRatio="xMidYMid meet">

<g transform="translate(0.000000,48.000000) scale(0.100000,-0.100000)"
fill="#ceb195" stroke="#ceb195">
<path d="M180 453 c-81 -31 -129 -130 -100 -207 7 -21 5 -33 -10 -59 -72 -118
75 -241 176 -146 18 17 26 19 42 10 92 -49 186 75 118 156 -19 23 -22 33 -14
53 22 58 -20 148 -83 180 -36 19 -97 25 -129 13z m120 -31 c44 -22 74 -74 76
-133 l1 -47 -42 1 c-29 1 -49 -4 -63 -16 -19 -17 -22 -18 -53 -2 -23 12 -45
16 -75 11 -43 -5 -43 -5 -50 29 -23 122 96 213 206 157z m-69 -231 c63 -64 23
-161 -66 -161 -36 0 -48 5 -69 31 -80 94 47 217 135 130z m163 -3 c20 -28 20
-58 1 -58 -8 0 -15 8 -15 19 0 10 -7 24 -15 31 -8 7 -15 16 -15 21 0 17 29 9
44 -13z"/>
<path d="M270 381 c0 -5 7 -14 14 -21 8 -6 20 -27 26 -46 6 -19 16 -34 21 -34
17 0 9 57 -12 84 -20 25 -49 35 -49 17z"/>
<path d="M190 175 c0 -8 4 -15 10 -15 5 0 12 -11 16 -25 6 -26 18 -32 29 -15
9 14 -23 70 -40 70 -8 0 -15 -7 -15 -15z"/>
</g>
</svg>
